<svg width="70" height="42" viewBox="0 0 70 42" fill="none" xmlns="http://www.w3.org/2000/svg">
<path d="M10.0241 23.557C11.0256 24.3084 11.6997 25.4162 11.907 26.6509H8.72445C8.51778 26.2109 8.1866 25.8413 7.77191 25.5876C7.2964 25.3144 6.7547 25.1777 6.20648 25.1926C5.77849 25.1754 5.35196 25.2525 4.95705 25.4184C4.56213 25.5843 4.20849 25.8349 3.92111 26.1525C3.31708 26.874 3.00842 27.7973 3.05717 28.7369C3.05717 29.9209 3.35992 30.8291 3.96541 31.4617C4.30512 31.7931 4.71084 32.0492 5.15614 32.2133C5.60144 32.3774 6.07632 32.4459 6.54984 32.4142C7.2251 32.4278 7.88632 32.2204 8.43278 31.8235C8.98948 31.4054 9.39197 30.8147 9.57731 30.1436H5.75236V27.9875H12.0658V30.9595C11.8293 31.6986 11.4533 32.3854 10.9581 32.9828C10.4148 33.6236 9.73986 34.1398 8.97921 34.4965C8.11796 34.8952 7.17753 35.0934 6.22864 35.0762C5.08068 35.1034 3.94588 34.8271 2.93903 34.275C2.01322 33.7545 1.2589 32.9758 0.768103 32.0339C0.262831 31.0109 0 29.8853 0 28.7443C0 27.6033 0.262831 26.4777 0.768103 25.4547C1.25799 24.5158 2.0078 23.7378 2.92795 23.2136C3.92648 22.6642 5.05226 22.3878 6.19171 22.4125C7.56032 22.3617 8.90741 22.7641 10.0241 23.557Z" fill="#1A1A1A"/>
<path d="M22.8536 23.1631C23.7997 23.6981 24.5812 24.4821 25.1131 25.43C25.6582 26.4388 25.9437 27.5675 25.9437 28.7141C25.9437 29.8608 25.6582 30.9894 25.1131 31.9982C24.5784 32.9506 23.7932 33.7384 22.8425 34.2762C21.8712 34.8137 20.7793 35.0957 19.6692 35.0957C18.5591 35.0957 17.4672 34.8137 16.4959 34.2762C15.5452 33.7384 14.7599 32.9506 14.2253 31.9982C13.6775 30.9902 13.3906 29.8613 13.3906 28.7141C13.3906 27.567 13.6775 26.438 14.2253 25.43C14.7635 24.4832 15.5481 23.6998 16.4959 23.1631C17.4705 22.6256 18.5654 22.3438 19.6784 22.3438C20.7914 22.3438 21.8863 22.6256 22.8609 23.1631H22.8536ZM17.3155 26.0983C16.7503 26.8505 16.4446 27.7659 16.4446 28.7067C16.4446 29.6476 16.7503 30.563 17.3155 31.3152C17.9381 31.934 18.7803 32.2814 19.6581 32.2814C20.536 32.2814 21.3781 31.934 22.0007 31.3152C22.5685 30.5662 22.8758 29.6521 22.8758 28.7123C22.8758 27.7724 22.5685 26.8583 22.0007 26.1094C21.3755 25.4927 20.5326 25.147 19.6544 25.147C18.7762 25.147 17.9334 25.4927 17.3081 26.1094L17.3155 26.0983Z" fill="#1A1A1A"/>
<path d="M40.0766 22.5391V24.9315H36.7021V34.9702H33.6783V24.9315H30.3555V22.5391H40.0766Z" fill="#1A1A1A"/>
<path d="M49.0487 32.7143H44.3857L43.6141 34.9812H40.4463L45.0023 22.6387H48.4654L53.0214 34.9812H49.8204L49.0487 32.7143ZM48.2734 30.4289L46.7265 25.8544L45.161 30.4289H48.2734Z" fill="#1A1A1A"/>
<path d="M61.727 34.9702L59.0909 31.1009L56.8388 34.9702H53.3941L57.3667 28.5719L53.2686 22.5391H56.8388L59.39 26.2828L61.5867 22.5391H65.0166L61.0957 28.7971L65.2824 34.9702H61.727Z" fill="#1A1A1A"/>
<path d="M69.4652 22.5391V34.9702H66.4746V22.5391H69.4652Z" fill="#1A1A1A"/>
<path d="M30.293 0.00587724C31.43 0.00362016 32.5572 0.215288 33.6159 0.629833C32.6209 1.28776 31.7467 2.11204 31.0314 3.06658C30.928 3.20318 30.8247 3.35087 30.7287 3.49117C30.5958 3.49117 30.4592 3.49117 30.3189 3.49117C28.8375 3.52894 27.4294 4.14396 26.395 5.20508C25.3606 6.26621 24.7816 7.68948 24.7816 9.17137C24.7816 10.6533 25.3606 12.0765 26.395 13.1376C27.4294 14.1988 28.8375 14.8138 30.3189 14.8516H30.4149C29.2132 15.3579 27.9196 15.6094 26.6157 15.59C26.1619 15.5887 25.7084 15.5641 25.2571 15.5161L23.5772 15.3389C22.3749 14.033 21.5789 12.4053 21.2862 10.6546C20.9936 8.90381 21.217 7.10572 21.9291 5.47979C22.6413 3.85386 23.8114 2.47044 25.2966 1.49839C26.7819 0.526352 28.518 0.0077443 30.293 0.00587724Z" fill="#FE5000"/>
<path d="M35.4619 11.4961C35.4619 11.4961 35.4435 11.5367 35.4287 11.5589C35.4362 11.5486 35.4424 11.5374 35.4472 11.5256C35.4472 11.5256 35.4619 11.4998 35.4619 11.4961Z" fill="#FE5000"/>
<path d="M39.1539 7.97852V18.1316H35.6797V16.5441C35.3803 16.7676 35.0658 16.9699 34.7382 17.1495C33.251 17.9819 31.56 18.38 29.8577 18.2984C28.1553 18.2168 26.5101 17.6588 25.1094 16.688C25.6263 16.7397 26.121 16.7693 26.5862 16.7693C30.2782 16.7693 32.5894 15.2038 33.9223 13.7639L34.129 13.535L34.321 13.3061C34.4724 13.1215 34.609 12.9369 34.7271 12.7671L34.8637 12.5677C34.8859 12.5345 34.9044 12.5013 34.9265 12.4717L35.041 12.2871C35.0742 12.2281 35.1074 12.169 35.1407 12.1173C35.2182 11.9807 35.2809 11.8625 35.3326 11.7481C35.3511 11.7112 35.3696 11.6743 35.3843 11.6373C35.3994 11.6085 35.4129 11.5789 35.4249 11.5487C35.4325 11.5385 35.4387 11.5273 35.4434 11.5155L35.4655 11.4527H29.658V7.97852H39.1539Z" fill="#1A1A1A"/>
<path d="M35.437 11.5128C35.4364 11.5027 35.4364 11.4925 35.437 11.4824C35.437 11.4824 35.4408 11.509 35.437 11.5128Z" fill="#FE5000"/>
<path d="M48.3101 9.15164C48.3026 11.3509 47.5063 13.4744 46.0659 15.1363C44.6255 16.7983 42.6367 17.8882 40.4609 18.2082H40.4424V14.6823C41.8029 14.3699 43.0005 13.5669 43.8063 12.427C44.612 11.2871 44.9693 9.89014 44.8098 8.50334C44.6504 7.11654 43.9853 5.83718 42.9419 4.90988C41.8984 3.98259 40.5498 3.47243 39.1539 3.47697C38.3011 3.47775 37.4596 3.67146 36.6924 4.04358C35.9251 4.4157 35.252 4.95659 34.7234 5.62574C34.4239 6.00641 34.1757 6.42471 33.985 6.86996H30.293C30.5852 5.71807 31.1022 4.63527 31.8141 3.68372C32.5927 2.64775 33.5785 1.7852 34.7087 1.15098C36.1007 0.377571 37.6706 -0.0189364 39.2629 0.000695109C40.8553 0.0203266 42.4149 0.455422 43.7874 1.26292C45.16 2.07041 46.2979 3.22231 47.0886 4.60464C47.8792 5.98696 48.2952 7.55179 48.2954 9.14426L48.3101 9.15164Z" fill="#FE5000"/>
<path d="M66.5086 38.8315L65.7185 38.85H65.6668C64.0017 38.8315 24.1498 39.4555 7.16268 41.7003L5.55664 38.0488L66.5086 38.8315Z" fill="#FE5000"/>
</svg>
